<svg width="512" height="512" xmlns="http://www.w3.org/2000/svg" xmlns:svg="http://www.w3.org/2000/svg">
 <g>
  <g id="svg_1">
   <g id="svg_2">
    <path fill="#00ffd4" id="svg_3" d="m193,64c-40.646,0 -72.483,11.229 -94.627,33.373c-22.144,22.144 -33.373,53.981 -33.373,94.627l0,256l160,0l0,-256l-96,0c0,-23.056 4.922,-39.666 14.627,-49.373c9.707,-9.705 26.317,-14.627 49.373,-14.627"/>
   </g>
   <g id="svg_4">
    <path fill="#00ffd4" id="svg_5" d="m417,64c-40.646,0 -72.483,11.229 -94.627,33.373c-22.144,22.144 -33.373,53.981 -33.373,94.627l0,256l160,0l0,-256l-96,0c0,-23.056 4.922,-39.666 14.627,-49.373c9.707,-9.705 26.317,-14.627 49.373,-14.627"/>
   </g>
  </g>
 </g>
</svg>